<?xml version="1.0" encoding="utf-8"?>
<!-- Generator: Adobe Illustrator 27.4.0, SVG Export Plug-In . SVG Version: 6.00 Build 0)  -->
<svg version="1.1" id="Capa_1" xmlns="http://www.w3.org/2000/svg" xmlns:xlink="http://www.w3.org/1999/xlink" x="0px" y="0px"
	 viewBox="0 0 157 157" style="enable-background:new 0 0 157 157;" xml:space="preserve">
<style type="text/css">
	.st0{fill:none;}
</style>
<g>
	<rect x="156.62" y="112.13" class="st0" width="14.25" height="14.31"/>
	<rect x="156.61" y="34.01" class="st0" width="14.27" height="14.26"/>
	<rect x="156.61" y="73.1" class="st0" width="14.25" height="14.27"/>
</g>
<g>
	<path d="M49.55,109.62c-1.47,1.49-2.92,2.9-4.28,4.39c-0.27,0.3-0.41,0.91-0.33,1.32c0.87,4.61-2.03,8.92-6.61,9.74
		c-4.32,0.77-8.65-2.26-9.34-6.69c-0.48-3.05,0.48-5.7,2.92-7.65c2.47-1.98,5.25-2.31,8.2-1.2c0.43,0.16,0.83,0.38,1.15,0.52
		c1.47-1.45,2.88-2.83,4.16-4.09c-14.79-19.22-15.03-38.49-0.58-58.16c-1.7-1.69-3.52-3.56-5.42-5.33
		c-0.23-0.21-0.99-0.05-1.38,0.15c-7.5,3.93-16.55,0.33-19.24-7.67c-2.48-7.36,1.89-15.4,9.39-17.3c7.68-1.95,15.26,2.88,16.68,10.6
		c0.58,3.19,0.12,6.2-1.47,9.02c-0.39,0.68-0.35,1.07,0.21,1.61c1.75,1.7,3.45,3.45,5.09,5.1c19.17-14.21,38.18-14.26,57.52,0
		c1.11-1.12,2.41-2.41,3.69-3.74c1.28-1.34,2.53-2.7,3.93-4.19c-1.5-2.86-1.86-6.09-0.53-9.43c0.95-2.36,2.56-4.14,4.76-5.37
		c4.33-2.44,9.97-1.48,13.26,2.23c3.44,3.88,3.7,9.44,0.68,13.63c-2.54,3.52-8.08,6.16-14.05,3.08c-2.71,2.6-5.37,5.16-7.92,7.61
		c14.22,19.24,14.23,38.26,0.02,57.52c1.72,1.72,3.57,3.61,5.49,5.42c0.2,0.19,0.91-0.01,1.29-0.21c7.03-3.71,15.64-0.82,18.79,6.47
		c2.23,5.15,1.48,10.04-2.17,14.26c-3.65,4.22-8.44,5.68-13.81,4.15c-5.24-1.49-8.49-5.09-9.6-10.49c-0.64-3.13-0.17-6.13,1.39-8.9
		c0.49-0.86,0.33-1.29-0.31-1.9c-1.72-1.66-3.38-3.38-5.06-5.07C88.74,124.18,64.34,122.22,49.55,109.62z M39.75,76.55
		c-0.01,20.89,16.82,37.74,37.7,37.73c20.82,0,37.65-16.8,37.68-37.62c0.04-20.9-16.76-37.77-37.63-37.79
		C56.61,38.85,39.76,55.67,39.75,76.55z M39.63,30.72c0-4.46-3.55-8.02-8-8.03c-4.48-0.01-8.04,3.51-8.05,7.97
		c-0.02,4.54,3.55,8.12,8.06,8.1C36.1,38.74,39.63,35.19,39.63,30.72z M131.31,122.42c0-4.46-3.56-8.01-8.02-8.02
		c-4.46-0.01-8.01,3.52-8.04,8c-0.03,4.51,3.56,8.09,8.09,8.07C127.78,130.46,131.31,126.89,131.31,122.42z M123.44,25.39
		c-2.96-0.1-5.45,2.23-5.55,5.2c-0.1,2.88,2.34,5.43,5.27,5.52c2.85,0.09,5.33-2.27,5.44-5.18
		C128.72,27.91,126.46,25.49,123.44,25.39z M37.01,114.42c-1.51-0.01-2.63,1.1-2.64,2.6c-0.01,1.51,1.1,2.63,2.6,2.64
		c1.51,0.01,2.63-1.1,2.64-2.6C39.62,115.55,38.52,114.43,37.01,114.42z"/>
	<path d="M76.68,88.52c0,2.89,0.02,5.58,0,8.27c-0.03,3.83-2.97,6.81-6.68,6.79c-3.68-0.01-6.67-3.04-6.7-6.81
		c-0.02-2.65-0.03-5.31,0.04-7.96c0.02-0.88-0.19-1.24-1.13-1.38c-3.84-0.56-6.73-3.92-6.75-7.81c-0.02-4.97-0.01-9.95,0.05-14.92
		c0.06-5.04,3.56-8.43,8.59-8.4c1.1,0.01,2.2-0.09,3.28,0.04c5.67,0.69,10.84-1.32,16.09-2.92c2.81-0.86,5.62-1.72,8.44-2.55
		c5.87-1.72,10.86,1.99,10.86,8.12c0,8.18-0.05,16.35-0.1,24.53c-0.01,1.09,0.02,2.2-0.16,3.27c-0.85,5.18-5.57,8.1-10.6,6.54
		c-4.65-1.44-9.28-2.96-13.91-4.45C77.66,88.78,77.3,88.69,76.68,88.52z M97.18,72.29c0.07,0,0.14,0,0.21,0c0-4.38,0-8.76,0-13.14
		c0-2.55-1.54-3.75-3.92-3.03c-5.18,1.56-10.35,3.17-15.55,4.68c-0.85,0.25-1,0.63-1,1.41c-0.01,6.49-0.03,12.98-0.09,19.46
		c-0.01,0.79,0.19,1.19,0.99,1.44c5.16,1.62,10.31,3.3,15.47,4.93c2.38,0.76,3.9-0.37,3.9-2.86C97.18,80.88,97.18,76.58,97.18,72.29
		z M71.37,82.14c0-6.84,0-13.52,0-20.39c-2.69,0-5.33-0.08-7.97,0.03c-1.45,0.06-2.38,1.17-2.39,2.62
		c-0.04,5.05-0.06,10.11-0.04,15.16c0.01,1.44,1.01,2.52,2.44,2.56C66.01,82.19,68.61,82.14,71.37,82.14z M68.8,87.73
		c0,3.12-0.05,6.1,0.05,9.08c0.01,0.43,0.69,1.16,1.08,1.18c0.41,0.02,1.22-0.64,1.23-1.03c0.1-3.05,0.06-6.11,0.06-9.23
		C70.46,87.73,69.72,87.73,68.8,87.73z"/>
</g>
</svg>
