<?xml version="1.0" encoding="utf-8"?>
<!-- Generator: Adobe Illustrator 27.4.0, SVG Export Plug-In . SVG Version: 6.00 Build 0)  -->
<svg version="1.1" id="Capa_1" xmlns="http://www.w3.org/2000/svg" xmlns:xlink="http://www.w3.org/1999/xlink" x="0px" y="0px"
	 viewBox="0 0 157 157" style="enable-background:new 0 0 157 157;" xml:space="preserve">
<g>
	<path d="M12.93,84.87c0.85-3.01,2.36-5.53,5.19-7.11c0.2-0.11,0.34-0.55,0.32-0.82c-0.16-1.92,0.26-3.71,1.07-5.44
		c0.22-0.48,0.32-1.05,0.33-1.59c0.26-24.52,16.23-46.38,39.5-54.04c32.16-10.58,66.42,8.49,74.32,41.45
		c0.79,3.29,0.98,6.73,1.53,10.08c0.11,0.7,0.44,1.44,0.88,2c1.74,2.2,2.61,4.64,2.47,7.46c-0.02,0.35,0.25,0.87,0.55,1.06
		c4.46,2.94,5.99,7.37,4.21,12.44c-2.07,5.9-4.16,11.79-6.28,17.67c-1.83,5.1-5.73,7.44-11.14,6.84c-0.36-0.04-0.88,0.23-1.12,0.53
		c-2.64,3.32-6.02,4.74-10.16,3.74c-4.09-0.98-6.48-3.75-7.3-7.84c-0.45-2.24-0.01-4.4,0.95-6.46c4.08-8.82,7.42-17.91,10.04-27.27
		c0.41-1.47,0.61-3.04,1.26-4.41c0.75-1.58,1.89-2.98,2.84-4.48c0.25-0.39,0.61-0.86,0.58-1.27c-0.79-9.65-4.15-18.3-10.4-25.74
		c-7.18-8.55-16.27-13.86-27.29-15.75c-22.23-3.82-43.81,9.1-50.84,30.52c-1.03,3.13-1.4,6.46-2.1,9.7
		c-0.14,0.63,0.02,0.97,0.6,1.31c2.54,1.46,4.06,3.7,4.78,6.51c2.73,10.66,6.47,20.95,11.02,30.97c2.68,5.9,0.07,12.18-5.75,14.03
		c-0.88,0.28-1.83,0.39-2.75,0.43c-0.92,0.04-1.85-0.11-2.84-0.19c0.22,0.81,0.5,1.56,0.61,2.33c0.25,1.67-0.12,3.19-1.08,4.61
		c-0.24,0.36-0.32,1.06-0.13,1.44c2.59,5.19,6.84,7.99,12.6,8.18c5.41,0.18,10.84,0.06,16.25,0.01c0.42,0,0.99-0.39,1.22-0.76
		c1.29-2.16,3.12-3.31,5.66-3.3c3.93,0.01,7.85,0,11.78,0c3.28,0,5.78,1.94,6.4,4.95c0.6,2.94-1.04,5.8-4.04,7.04
		c-0.18,0.07-0.33,0.2-0.5,0.3c-5.04,0-10.07,0-15.11,0c-1.69-0.65-3.28-1.48-4.08-3.22c-0.36-0.78-0.84-0.89-1.59-0.89
		c-5.37,0.03-10.74,0.07-16.11-0.02c-1.59-0.03-3.23-0.28-4.77-0.71c-5.19-1.48-8.94-4.74-11.41-9.53
		c-0.21-0.41-0.72-0.92-1.11-0.94c-3.11-0.15-5.02-1.76-6.06-4.62c-2.01-5.55-4.05-11.09-6.07-16.64
		c-2.31-6.33-4.62-12.65-6.93-18.98C12.93,87.26,12.93,86.07,12.93,84.87z M131.04,66.29c-2.33-19.19-11.48-34.02-28.7-42.94
		c-19.06-9.87-38.02-8.56-55.7,3.64c-13.8,9.53-20.99,23.17-22.56,39.89c1.46-0.32,2.69-0.59,3.93-0.85
		C29.99,42.75,49.13,23,73.97,21.21c10.62-0.77,20.62,1.51,29.67,7.2c13.96,8.77,21.61,21.57,23.53,37.88
		C128.49,66.29,129.67,66.29,131.04,66.29z M28.14,70.28c-3.71,0-6.45,3.66-5.36,7.46c1.74,6.09,3.44,12.2,5.56,18.16
		c1.93,5.44,4.36,10.71,6.64,16.02c0.97,2.25,2.83,3.4,5.27,3.38c2.33-0.02,4.32-1.61,5.09-3.82c0.61-1.77,0.22-3.4-0.48-5.07
		c-2.15-5.18-4.42-10.33-6.3-15.61c-1.85-5.2-3.31-10.54-4.89-15.83C32.83,72.14,30.7,70.28,28.14,70.28z M134.48,76.35
		c-0.16-0.88-0.2-1.44-0.36-1.97c-0.74-2.44-3.03-4.15-5.43-4.09c-2.49,0.06-4.61,1.85-5.39,4.52c-1.25,4.28-2.32,8.63-3.84,12.82
		c-2.35,6.47-4.99,12.84-7.58,19.22c-0.91,2.25-0.86,4.34,0.61,6.27c2.61,3.43,7.6,2.74,9.52-1.28c4.55-9.59,8.25-19.5,11.02-29.74
		C133.57,80.1,134.05,78.07,134.48,76.35z M19.17,82.15c-1.91,1.43-2.63,3.85-1.69,6.53c1.48,4.25,3.01,8.49,4.53,12.74
		c0.71,2,1.38,4.02,2.18,5.99c0.98,2.41,3.39,3.78,5.19,3.33C25.98,101.22,22.57,91.67,19.17,82.15z M137.42,81.9
		c-2.66,9.94-6.11,19.5-10.28,28.86c2.72,0.18,4.78-1.05,5.68-3.49c2.3-6.26,4.56-12.54,6.75-18.84
		C140.45,85.93,139.58,83.46,137.42,81.9z M78.41,139.92c1.92,0,3.84,0.01,5.75,0c1.49-0.01,2.46-0.82,2.49-2.01
		c0.03-1.2-0.95-2.07-2.42-2.08c-3.84-0.02-7.67-0.02-11.51,0c-1.47,0.01-2.44,0.87-2.42,2.07c0.02,1.19,0.99,2,2.48,2.02
		C74.66,139.93,76.53,139.92,78.41,139.92z M26.96,114.95c1.04,2.79,2.05,5.57,3.13,8.33c0.43,1.08,1.51,1.49,2.51,1.09
		c1.06-0.42,1.6-1.38,1.23-2.46c-0.81-2.36-1.69-4.69-2.52-6.96C29.82,114.95,28.44,114.95,26.96,114.95z"/>
</g>
</svg>
