<?xml version="1.0" encoding="utf-8"?>
<!-- Generator: Adobe Illustrator 27.4.0, SVG Export Plug-In . SVG Version: 6.00 Build 0)  -->
<svg version="1.1" id="Capa_1" xmlns="http://www.w3.org/2000/svg" xmlns:xlink="http://www.w3.org/1999/xlink" x="0px" y="0px"
	 viewBox="0 0 157 157" style="enable-background:new 0 0 157 157;" xml:space="preserve">
<path d="M141.71,94.81c0-18.89,0.01-37.79,0-56.68c0-7.9-6.63-14.58-14.47-14.58c-32.52-0.02-65.05-0.02-97.57,0
	c-7.82,0-14.42,6.64-14.43,14.49c-0.01,19.07,0,38.15,0,57.22c0,0.58,0,1.19,0.09,1.69c1.35,7.76,7.32,12.79,15.21,12.81
	c4.45,0.01,8.9,0.01,13.35,0.01l13.84,0l-0.18,2.17c-0.01,0.29-0.02,0.65-0.18,1.05l-0.81,2.06c-1.69,4.29-3.44,8.72-5.21,13.07
	c-0.48,1.19-1.89,1.89-2.97,1.94c-0.8,0.04-1.59,0.03-2.35,0.02c-1.04-0.01-2.02-0.02-2.96,0.08c-0.54,0.06-1.23,0.37-1.73,0.77
	c-0.61,0.49-0.8,1.53-0.44,2.35c0.48,1.08,1.17,1.54,2.32,1.54l33.02,0h10.16c9.03,0,18.05,0,27.08,0c1.65,0,2.68-0.9,2.68-2.35
	c0-2.1-1.87-2.36-2.68-2.37c-0.63-0.01-1.26-0.01-1.89,0c-1,0-2.02,0.01-3.06-0.03c-0.88-0.04-2.37-0.56-2.9-1.86
	c-1.71-4.2-3.39-8.42-5.11-12.76l-2.25-5.67h4.39c2.44,0,4.96,0,7.45,0.01c5.53,0.01,11.25,0.03,16.86-0.03
	C135.24,109.65,141.71,103.09,141.71,94.81z M99.64,126.1c0.1,0.26,0.19,0.53,0.29,0.84l1,3.02H56.09l0.93-2.99
	c0.1-0.35,0.2-0.69,0.33-1.02l1.73-4.36c1.15-2.91,2.31-5.81,3.44-8.73c0.24-0.62,0.98-2.52,3.58-2.52c0.01,0,0.02,0,0.03,0
	c7.72,0.05,15.8,0.05,24.69,0c0.01,0,0.02,0,0.03,0c1.74,0,2.89,0.79,3.51,2.42c1.21,3.13,2.45,6.26,3.69,9.38L99.64,126.1z
	 M133.97,101.97c-1.96,1.96-4.59,2.99-7.59,2.99c-0.03,0-0.06,0-0.09,0c-11.49-0.08-23.17-0.06-34.47-0.05
	c-4.49,0.01-8.99,0.01-13.48,0.01l-9.37,0c-12.64,0-25.28,0-37.92-0.02c-1.16,0-2.89-0.07-4.5-0.6c-3.94-1.32-6.59-5.1-6.6-9.42
	c-0.03-22.76-0.03-40.21,0-56.55c0.01-5.56,4.13-9.79,9.78-10.06c0.24-0.01,0.48-0.01,0.72-0.01l0.19,0l17.94,0
	c25.91,0,51.82,0,77.73,0c6.5,0,10.7,4.22,10.7,10.76c0,5.53,0,11.06,0,16.59c-0.01,12.65-0.01,25.73,0.04,38.59
	C137.06,97.23,135.97,99.99,133.97,101.97z"/>
<path d="M78.99,66.61c-0.03-12.2-9.92-22.11-22.06-22.11c-0.01,0-0.01,0-0.02,0c-5.88,0-11.41,2.31-15.59,6.5
	c-4.21,4.22-6.51,9.82-6.5,15.77c0.03,12.12,9.92,21.96,22.06,21.96c0.02,0,0.03,0,0.05,0c5.9-0.01,11.45-2.32,15.62-6.5
	C76.72,78.04,79,72.5,78.99,66.61z M59.4,49.2l2.66,0.93c5.68,1.99,9.39,5.71,11.35,11.38l0.92,2.65H59.4V49.2z M56.68,83.9
	c-0.36,0-0.72-0.01-1.09-0.03c-8.6-0.55-15.48-7.65-16-16.51C39.14,59.7,45,51.67,52.14,50.19l2.41-0.5v9.2c0,0.76,0,1.53-0.01,2.29
	c-0.01,1.77-0.02,3.61,0.04,5.39c0.05,1.54,0.98,2.42,2.55,2.43c3.01,0.01,6.02,0.01,9.03,0.01l7.57,0l-0.4,2.34
	C72.14,78.35,64.65,83.9,56.68,83.9z"/>
<path d="M122.1,83.79c-0.29-1.23-1.2-1.94-2.5-1.95c-7.8-0.06-14.94-0.05-21.82,0.03c-0.47,0.01-1.16,0.28-1.74,0.67
	c-0.69,0.48-0.95,1.52-0.63,2.48c0.31,0.94,1.3,1.6,2.41,1.61c2.58,0.02,5.16,0.02,7.74,0.01l3.24,0l2.81,0.01
	c2.5,0.01,5.08,0.02,7.6-0.04c0.65-0.01,1.33-0.18,1.84-0.44C121.84,85.77,122.31,84.7,122.1,83.79z"/>
<path d="M95.27,49.01c0.01,1.39,1.07,2.33,2.62,2.34c2.49,0.01,4.98,0.01,7.46,0.01l3.25,0l3.28,0c2.57,0,5.13,0.01,7.7-0.01
	c0.75,0,1.41-0.26,1.88-0.7c0.44-0.43,0.67-1,0.67-1.66c-0.01-1.38-1.08-2.34-2.6-2.34c-7.19-0.01-14.39-0.01-21.58,0
	c-0.84,0-1.57,0.27-2.06,0.77C95.48,47.83,95.26,48.38,95.27,49.01z"/>
<path d="M122.13,66.59c-0.02-1.4-1.1-2.3-2.77-2.31c-2.5-0.01-4.99-0.01-7.48-0.01l-3.24,0l-2.59,0c-0.93,0-1.87,0-2.8,0
	c-1.68,0-3.37,0-5.05,0.01c-0.48,0-1.02,0.02-1.38,0.14c-1.03,0.34-1.67,1.4-1.5,2.47c0.21,1.29,1.15,2.09,2.45,2.1
	c7.19,0.02,14.39,0.01,21.58,0c0.89,0,1.66-0.28,2.16-0.78C121.92,67.8,122.14,67.24,122.13,66.59z"/>
</svg>
