<?xml version="1.0" encoding="utf-8"?>
<!-- Generator: Adobe Illustrator 27.4.0, SVG Export Plug-In . SVG Version: 6.00 Build 0)  -->
<svg version="1.1" id="Capa_1" xmlns="http://www.w3.org/2000/svg" xmlns:xlink="http://www.w3.org/1999/xlink" x="0px" y="0px"
	 viewBox="0 0 157 157" style="enable-background:new 0 0 157 157;" xml:space="preserve">
<g>
	<path d="M109.86,143.27c6.26-3.24,11.96-7.45,16.95-12.51c0.6-0.61,0.92-1.36,0.88-2.09c-0.03-0.66-0.36-1.27-0.91-1.73
		c-0.42-0.34-1.7-1.4-3.77,0.62c-11.28,11.01-24.86,17.15-40.38,18.25c-10.06,0.71-20.01-1.04-29.57-5.21
		c-7.1-3.1-13.63-7.59-19.4-13.33c-0.6-0.59-1.27-0.91-1.94-0.91c-0.01,0-0.01,0-0.02,0c-0.62,0.01-1.21,0.28-1.71,0.8
		c-1,1.03-0.93,2.48,0.19,3.59c10,10.01,22.08,16.42,35.91,19.04c1.66,0.32,3.38,0.56,5.04,0.8c0.77,0.11,1.53,0.22,2.3,0.34h10.06
		c0.02-0.01,0.04-0.02,0.06-0.02c0.22-0.09,0.5-0.2,0.83-0.23C93.17,149.96,101.75,147.47,109.86,143.27z"/>
	<path d="M148.42,116.29c0.21-5.78-1.26-10.93-4.34-15.33c-2.58-3.67-6.06-6.49-10.36-8.37l-1.39-0.61l1.11-1.03
		c4.01-3.71,4.84-7.83,4.83-10.63c-0.01-3.86-1.66-7.66-4.41-10.16c-5.36-4.88-13.65-4.76-18.89,0.27
		c-2.66,2.55-4.23,6.31-4.21,10.05c0.01,2.68,0.83,6.62,4.64,10.21l0.88,0.83l-2.62,1.87c-1.76,1.26-3.58,2.56-5.42,3.8
		c-0.72,0.49-1.85,0.21-2.42-0.13c-2.37-1.45-4.73-2.91-7.09-4.37c-2.46-1.52-4.92-3.05-7.39-4.56c-1.04-0.63-1.41-1.44-1.21-2.62
		c1.07-6.27-1.76-11.28-7.75-13.74C82,71.62,81,71.01,80.98,70.09c-0.05-2-0.04-3.96-0.04-6.03l0-2.75h2.74c1.32,0,2.66,0,3.98,0
		c3.06,0.01,6.22,0.01,9.32-0.03c3.07-0.04,5.22-2.1,5.36-5.11c0.48-10.17-4.73-19.14-13.6-23.4c-0.27-0.13-0.53-0.28-0.8-0.44
		l-1.53-0.86l0.99-0.93c3.86-3.62,4.75-7.57,4.83-10.25c0.1-3.63-1.28-7.21-3.77-9.81C83.29,5.11,74.87,4.77,69.3,9.72
		c-2.76,2.45-4.46,6.18-4.54,9.99c-0.06,2.8,0.72,6.95,4.79,10.89l0.9,0.87l-1.19,0.76c-0.15,0.1-0.29,0.19-0.44,0.26
		c-9.63,4.72-14.27,12.36-14.19,23.36c0.02,3.19,2.21,5.37,5.45,5.43c1.95,0.04,3.91,0.03,5.87,0.02c0.85,0,1.69-0.01,2.56-0.01
		h7.54l0,2.8c0,2.04,0.01,3.96-0.04,5.91c-0.02,0.77-0.76,1.55-1.42,1.76c-4.88,1.56-9.12,7.15-7.78,13.79
		c0.17,0.82-0.31,1.96-1,2.4c-4.69,2.97-9.69,6.07-14.84,9.2c-0.7,0.42-1.8,0.28-2.39-0.12c-1.77-1.19-3.55-2.45-5.26-3.66
		l-2.65-1.87l0.89-0.83c2.93-2.74,4.53-6.16,4.65-9.89c0.11-3.66-1.27-7.28-3.78-9.94c-2.68-2.84-6.33-4.29-10-4.29
		c-3.1,0-6.2,1.03-8.75,3.14c-2.77,2.29-4.41,5.19-4.85,8.62c-0.64,4.92,0.96,9.15,4.74,12.56l1.01,0.91l-1.43,0.84
		c-0.17,0.1-0.3,0.18-0.43,0.24c-9.58,4.7-14.21,12.3-14.15,23.24c0.02,3.21,2.2,5.55,5.19,5.56c12.09,0.04,24.66,0.04,37.37,0
		c2.73-0.01,5.03-2.2,5.12-4.89c0.08-2.59-0.05-4.64-0.43-6.44c-0.38-1.8-0.97-3.55-1.6-5.4c-0.28-0.82-0.56-1.65-0.83-2.49
		l-0.23-0.73l16.57-10.27l0.54,0.42c5.55,4.27,10.94,4.27,16.48,0l0.54-0.42l17.02,10.55l-0.46,0.82c-2.23,4.03-3.26,8.35-3.15,13.2
		c0.08,3.45,2.31,5.68,5.68,5.68c12.12,0.01,24.25,0.01,36.37,0C146.08,121.68,148.31,119.56,148.42,116.29z M23.64,80.41
		c-0.02-4.95,3.82-8.83,8.72-8.85c2.42,0,4.61,0.89,6.25,2.52c1.64,1.63,2.55,3.84,2.55,6.23c0.01,4.89-3.78,8.74-8.61,8.77
		c-0.02,0-0.03,0-0.05,0c-2.42,0-4.66-0.91-6.32-2.55C24.55,84.9,23.65,82.73,23.64,80.41z M51.29,116.64H13.62l-0.03-0.96
		c-0.19-7.16,2.62-12.79,8.36-16.74c6.17-4.25,14.52-4.29,20.78-0.12c5.75,3.84,8.64,9.51,8.57,16.84L51.29,116.64z M69.74,20
		c0-4.87,3.93-8.84,8.77-8.85c0,0,0.01,0,0.01,0c2.31,0,4.49,0.91,6.14,2.55c1.68,1.68,2.6,3.93,2.6,6.32
		c-0.01,4.8-3.91,8.72-8.69,8.74c-0.01,0-0.03,0-0.04,0c-2.35,0-4.55-0.9-6.21-2.55C70.65,24.57,69.74,22.36,69.74,20z M59.73,56.34
		l-0.04-0.94c-0.31-6.7,2.14-12.09,7.29-16c6.26-4.77,13.31-5.37,20.37-1.75c6.57,3.37,10.63,10.69,9.88,17.81l-0.09,0.89H59.73z
		 M78.53,90.02c0,0-0.01,0-0.02,0c-1.87,0-3.63-0.72-4.95-2.03c-1.33-1.31-2.07-3.06-2.07-4.92c0-1.83,0.72-3.56,2.03-4.87
		c1.33-1.33,3.1-2.07,4.98-2.07c0.01,0,0.02,0,0.02,0c1.87,0.01,3.63,0.75,4.96,2.1c1.31,1.33,2.03,3.08,2.01,4.92
		C85.46,86.93,82.33,90.01,78.53,90.02z M115.82,80.25c0.04-4.88,3.91-8.69,8.81-8.69c0.01,0,0.03,0,0.04,0
		c2.33,0.01,4.51,0.93,6.14,2.58c1.65,1.68,2.55,3.93,2.53,6.33c-0.02,2.37-0.96,4.55-2.64,6.16c-1.65,1.58-3.85,2.44-6.22,2.44
		c-0.03,0-0.07,0-0.1,0C119.54,89.01,115.78,85.14,115.82,80.25z M143.39,116.62h-37.69l-0.01-0.98
		c-0.09-7.45,2.83-13.11,8.66-16.83c6.65-4.24,13.68-4.26,20.34-0.07c5.96,3.75,8.89,9.44,8.73,16.91L143.39,116.62z"/>
	<path d="M15.86,89.44c-0.61-6.18-0.41-11.86,0.61-17.37c3.23-17.46,12.34-31.42,27.08-41.51c4.28-2.93,9.08-5.31,14.27-7.09
		c1.48-0.51,2.12-1.17,2.21-2.31c0.08-0.94-0.2-1.68-0.79-2.14c-0.75-0.58-1.92-0.65-3.21-0.2c-27.17,9.51-45.49,35.3-45.62,64.2
		c0.05,0.73,0.1,1.46,0.14,2.18c0.1,1.65,0.21,3.35,0.41,5c0.1,0.85,0.43,1.51,0.94,1.91c0.48,0.37,1.12,0.52,1.87,0.42
		C15.18,92.36,16.02,91.12,15.86,89.44z"/>
	<path d="M99.3,23.52c9.73,3.41,18.17,8.89,25.08,16.3c9.03,9.67,14.57,21.19,16.45,34.23c0.72,4.97,0.82,10.18,0.3,15.49
		c-0.16,1.6,0.67,2.8,2.06,3c0.75,0.11,1.41-0.04,1.89-0.41c0.51-0.39,0.84-1.04,0.95-1.87c0.2-1.58,0.3-3.16,0.42-4.99
		c0.05-0.82,0.11-1.68,0.18-2.6c-0.09-0.95-0.16-1.95-0.24-2.98c-0.18-2.46-0.37-4.99-0.8-7.52c-3.02-17.64-11.67-32.14-25.71-43.11
		c-5.74-4.48-12.22-7.95-19.25-10.33c-0.41-0.14-0.82-0.21-1.21-0.21c-0.64,0-1.23,0.19-1.67,0.55c-0.61,0.5-0.88,1.26-0.77,2.15
		C97.12,22.35,97.77,22.99,99.3,23.52z"/>
</g>
</svg>
