<?xml version="1.0" encoding="utf-8"?>
<!-- Generator: Adobe Illustrator 27.4.0, SVG Export Plug-In . SVG Version: 6.00 Build 0)  -->
<svg version="1.1" id="Capa_1" xmlns="http://www.w3.org/2000/svg" xmlns:xlink="http://www.w3.org/1999/xlink" x="0px" y="0px"
	 viewBox="0 0 157 157" style="enable-background:new 0 0 157 157;" xml:space="preserve">
<g>
	<path d="M82.14,107.28c0.5,0.4,0.95,0.71,1.33,1.09c2.05,2.04,3.4,4.46,3.47,7.39c0.12,5.11,0.35,10.24,0.1,15.34
		c-0.32,6.47-7.01,11.34-13.31,9.99c-2.34-0.5-4.13-1.91-5.64-3.7c-0.3-0.35-0.59-0.71-0.81-1.1c-1.22-2.13-2.97-2.87-5.48-2.81
		c-7.16,0.17-14.33,0.1-21.49,0.02c-1.96-0.02-3.29,0.41-4.38,2.27c-2.44,4.15-6.73,6.06-10.98,5.29c-4.44-0.81-8.26-4.23-8.94-8.51
		c-0.47-2.94-0.46-5.97-0.48-8.97c-0.02-2.66,0.14-5.33,0.34-7.99c0.22-2.81,1.51-5.16,3.5-7.12c0.32-0.32,0.66-0.61,1.09-1.01
		c-0.35-0.38-0.63-0.71-0.94-1.03c-1.4-1.41-1.69-2.96-0.89-4.8c0.78-1.79,1.69-2.41,3.86-2.22c1.26,0.12,1.78-0.31,2.15-1.46
		c0.69-2.13,1.45-4.25,2.33-6.32c1.92-4.53,5.46-6.94,10.32-6.97c9.83-0.05,19.66,0.06,29.49,0.24c3.67,0.07,6.43,2.03,8.12,5.21
		c1.19,2.22,2.02,4.64,2.94,6.99c0.42,1.07,0.86,1.95,2.17,2.09c2.16,0.23,3.61,1.37,4.2,3.51
		C84.72,104.64,83.6,105.86,82.14,107.28z M51.14,112.83c-6.29,0-12.58-0.01-18.87,0.01c-1.29,0.01-2.58,0.1-3.85,0.25
		c-2.67,0.31-4.07,1.9-4.08,4.61c-0.02,3.71-0.03,7.41,0.02,11.12c0.01,0.8,0.23,1.66,0.56,2.39c0.52,1.15,1.68,1.53,2.69,0.8
		c0.59-0.43,1.13-1.25,1.25-1.98c0.7-4.07,1.55-4.89,5.62-4.89c11.08-0.01,22.15-0.01,33.23,0c3.9,0,4.99,0.87,5.92,4.62
		c0.05,0.2,0.12,0.4,0.17,0.6c0.39,1.4,1.3,2.15,2.44,2.03c1.08-0.12,2.08-1.18,2.09-2.46c0.04-4,0.1-8-0.03-11.99
		c-0.09-2.63-2.07-4.54-4.7-4.84c-1.28-0.15-2.57-0.24-3.86-0.24C63.55,112.81,57.35,112.83,51.14,112.83z M70.89,104.3
		c-0.02-0.33,0.01-0.54-0.06-0.73c-0.96-2.83-1.95-5.65-2.9-8.49c-0.43-1.3-1.31-1.8-2.65-1.79c-9.16,0.02-18.32,0.01-27.49,0.02
		c-1.96,0-2.6,0.45-3.25,2.28c-0.93,2.62-1.81,5.26-2.7,7.9c-0.07,0.22-0.06,0.46-0.1,0.81C44.81,104.3,57.78,104.3,70.89,104.3z"/>
	<path d="M141.48,64.74c0.14,12.79-4.66,23.69-13.28,32.84c-8.65,9.19-17.68,18.02-26.57,26.98c-1.61,1.62-3.32,3.15-5.02,4.68
		c-0.46,0.41-1.02,0.74-1.58,1c-1.95,0.9-3.66,0.56-4.84-0.92c-1.25-1.57-1.3-3.52-0.06-5.18c0.47-0.63,1.01-1.22,1.56-1.78
		c8.05-8.21,16.14-16.38,24.16-24.61c3.16-3.24,6.45-6.42,9.24-9.97c6.31-8.05,8.39-17.4,7.61-27.49
		c-0.85-11.02-5.88-20.1-14.23-26.85c-12.38-10-26.39-12.3-41.2-5.69c-12.52,5.6-20,15.53-23.07,28.8
		c-0.93,4.02-0.67,8.12-0.24,12.19c0.15,1.41,0.36,2.82,0.37,4.22c0.02,2.26-1.34,3.79-3.53,4.16c-2.26,0.39-3.68-0.43-4.48-2.76
		c-1.29-3.75-1.7-7.68-1.42-11.58c0.43-5.9,1.32-11.75,3.73-17.24c5.39-12.28,14.22-21.19,26.49-26.6c4.5-1.98,9.34-2.66,14.21-3.08
		c11.83-1.02,22.47,2.25,32.17,8.9c8.59,5.89,14.31,13.91,17.59,23.74C140.92,54.01,141.37,56.92,141.48,64.74z"/>
	<path d="M89.34,72.12c0,3.07,0.04,5.77-0.02,8.46c-0.02,1.03-0.17,2.08-0.46,3.06c-0.59,1.99-2.32,3.1-4.38,2.97
		c-1.83-0.12-3.19-1.37-3.59-3.41c-0.16-0.81-0.22-1.65-0.23-2.48c-0.02-10.66-0.01-21.32-0.01-31.98c0-0.21,0-0.42,0.01-0.62
		c0.09-4.18,1.44-5.57,5.6-5.48c3.99,0.08,8.01,0.03,11.97,0.51c6.89,0.84,12.43,8.16,11.77,15.09c-0.76,7.99-6.1,13.28-14.11,13.86
		C93.79,72.25,91.66,72.12,89.34,72.12z M89.35,51.43c0,3.97-0.01,7.71,0.03,11.44c0,0.25,0.46,0.71,0.7,0.7
		c1.95-0.01,3.91,0.02,5.84-0.21c2.61-0.31,4.85-2.62,5.35-5.22c0.36-1.86-1.24-4.65-3.34-5.85C95.2,50.74,92.31,51.46,89.35,51.43z
		"/>
	<path d="M67.62,115.27c0.68,0.07,1.78,0.06,2.81,0.32c1.75,0.44,2.89,2.07,2.91,3.9c0.02,1.97-0.94,3.29-2.87,3.87
		c-2.28,0.7-4.58,0.76-6.86-0.02c-2-0.68-3.14-2.35-2.95-4.25c0.19-1.89,1.53-3.27,3.58-3.57
		C65.23,115.38,66.23,115.37,67.62,115.27z"/>
	<path d="M34.78,123.98c-1.33-0.23-2.53-0.37-3.69-0.67c-1.81-0.46-2.97-2.11-2.92-4.01c0.04-1.77,1.33-3.51,3.12-3.7
		c2.05-0.21,4.15-0.21,6.21-0.03c1.83,0.16,3.18,1.8,3.32,3.54c0.14,1.74-0.92,3.56-2.62,4.14
		C37.07,123.64,35.86,123.76,34.78,123.98z"/>
</g>
</svg>
