<?xml version="1.0" encoding="utf-8"?>
<!-- Generator: Adobe Illustrator 27.4.0, SVG Export Plug-In . SVG Version: 6.00 Build 0)  -->
<svg version="1.1" id="Capa_1" xmlns="http://www.w3.org/2000/svg" xmlns:xlink="http://www.w3.org/1999/xlink" x="0px" y="0px"
	 viewBox="0 0 157 157" style="enable-background:new 0 0 157 157;" xml:space="preserve">
<style type="text/css">
	.st0{fill:none;}
</style>
<g>
	<rect x="156.62" y="112.13" class="st0" width="14.25" height="14.31"/>
	<rect x="156.61" y="34.01" class="st0" width="14.27" height="14.26"/>
	<rect x="156.61" y="73.1" class="st0" width="14.25" height="14.27"/>
</g>
<path d="M138.57,78.29c-0.65-0.49-0.93-1.14-0.91-2.09c0.04-1.74,0.03-3.52,0.02-5.23l0-1.63c0-1.48-0.42-1.91-1.87-1.92
	c-0.54,0-1.08,0-1.63,0.01c-1.01,0.01-2.05,0.02-3.08-0.02c-0.63-0.02-1.27-0.02-1.91-0.03c-1.73-0.01-3.52-0.02-5.22-0.4
	c-3.6-0.83-7.16-2.07-10.61-3.27l-0.7-0.24c-5.27-1.84-10.71-3.73-16.34-4.61c-0.54-0.08-1.09-0.69-1.24-1.18
	c-0.36-1.25-0.68-2.53-0.98-3.77c-0.15-0.59-0.29-1.18-0.44-1.77c-0.22-0.86-0.69-1.23-1.63-1.23c-2.33,0.02-4.67,0.02-7,0
	c-0.95-0.03-1.44,0.39-1.66,1.32c-0.1,0.42-0.22,0.83-0.34,1.24c-0.22,0.78-0.43,1.51-0.52,2.26c-0.26,2.22-1.29,3.26-3.66,3.68
	c-6.49,1.17-13.04,3.52-21.22,7.62c-0.56,0.28-1.19,0.49-1.82,0.61c-3.04,0.58-6.07,1.15-9.11,1.73
	c-6.21,1.17-12.41,2.35-18.61,3.55c-0.53,0.1-1.19,0.54-1.56,1.05c-0.95,1.27-1.84,2.61-2.71,3.91c-0.32,0.48-0.64,0.96-0.96,1.43
	v12.11c0.08,0.08,0.15,0.16,0.22,0.24c0.22,0.23,0.43,0.46,0.66,0.61c3.5,2.23,7.39,4.22,12.07,3.75c0.74-0.07,1.27,0.18,1.74,0.86
	c2.09,2.98,5.29,4.68,8.78,4.68c0,0,0,0,0,0c3.48,0,6.67-1.7,8.75-4.67c0.44-0.63,0.93-0.88,1.69-0.88c0,0,0,0,0.01,0L73.9,96
	c9.97,0,19.93,0.01,29.9,0.03c0.55,0,1.26,0.36,1.57,0.8c2.16,3,5.39,4.71,8.87,4.71c0.01,0,0.01,0,0.02,0
	c3.46-0.01,6.66-1.72,8.79-4.69c0.34-0.48,1.02-0.77,1.51-0.84c1.97-0.27,3.94-0.53,5.91-0.79c2.48-0.32,4.97-0.65,7.45-1.01
	c1.33-0.19,1.6-0.54,1.6-2.06l0-3.36c-0.01-2.69-0.01-5.48,0.03-8.22C139.55,79.51,139.26,78.82,138.57,78.29z M108.15,65.02
	l0.74,0.25l-0.66,0.42c-1.83,1.16-7.41,1.93-12.56,1.93c-1.89,0-3.73-0.1-5.3-0.33l-0.32-0.05v-5.93l0.38,0.01
	C96.83,61.48,102.73,63.2,108.15,65.02z M86.02,53.87h5.03l1.04,4.32h-7.12L86.02,53.87z M66.03,66.64
	c7.68-3.27,14.23-4.98,20.6-5.37l0.4-0.02v6.11H64.34L66.03,66.64z M46.37,98.59c-0.02,0-0.04,0-0.07,0c-2.01-0.02-4-0.89-5.45-2.38
	c-1.46-1.5-2.24-3.43-2.2-5.44c0.08-4.13,3.59-7.59,7.69-7.59c0.02,0,0.04,0,0.06,0c2.02,0.02,4.01,0.88,5.46,2.38
	c1.46,1.5,2.24,3.43,2.2,5.44C53.98,95.12,50.47,98.59,46.37,98.59z M114.23,98.59c-0.02,0-0.04,0-0.06,0
	c-2.01-0.02-4-0.88-5.45-2.37c-1.46-1.5-2.24-3.43-2.2-5.44c0.08-4.13,3.59-7.6,7.69-7.6c0.02,0,0.04,0,0.06,0
	c2.02,0.02,4,0.88,5.46,2.37c1.46,1.5,2.24,3.43,2.2,5.44C121.84,95.12,118.33,98.59,114.23,98.59z M135.51,91.69
	c-1.97,0.25-3.94,0.5-5.9,0.75l-3.74,0.48c-0.13,0.02-0.27,0.02-0.44,0.01l-0.67,0l0.04-0.41c0.35-4-0.79-7.12-3.48-9.55
	c-2.15-1.94-4.72-2.85-7.6-2.71c-3.12,0.15-5.73,1.47-7.76,3.91c-1.9,2.29-2.66,5.06-2.31,8.44l0.04,0.41H56.88l0.04-0.41
	c0.39-3.89-0.66-6.97-3.22-9.42c-2.01-1.93-4.43-2.91-7.18-2.94c-3.29-0.04-6.02,1.21-8.2,3.67c-2.05,2.32-2.88,5.14-2.54,8.62
	l0.04,0.35l-0.35,0.06c-2.59,0.43-6.83-0.96-8.62-2.39c-0.63-0.5-0.96-1.01-0.99-1.5l-0.02-0.4l1.45,0c0.79,0,1.57,0.01,2.36-0.01
	c1.05-0.01,1.65-0.54,1.66-1.45c0-0.91-0.59-1.45-1.64-1.46c-0.76-0.01-1.52-0.01-2.31-0.01l-1.46,0v-4.26l0.3-0.06
	c0.2-0.06,0.35-0.11,0.52-0.08c2.79,0.36,5.27-0.54,7.91-1.48l1-0.36c0.97-0.34,1.41-1.08,1.14-1.92c-0.28-0.86-1.1-1.18-2.15-0.84
	c-0.56,0.18-1.12,0.37-1.67,0.56c-0.85,0.29-1.7,0.58-2.57,0.83c-0.51,0.15-1.03,0.21-1.59,0.28c-0.26,0.03-0.53,0.06-0.82,0.11
	l-0.66,0.1L27.56,78c0.57-1.37,1.3-2.35,3.03-2.65c5.47-0.97,11.03-2.01,16.4-3.02c2.96-0.56,5.92-1.11,8.88-1.66
	c1.19-0.22,2.25-0.33,3.24-0.33c8.53-0.01,17.06-0.01,25.59-0.01l15.21,0c4.88,0,8.93-1.03,12.38-3.15
	c0.44-0.27,1.11-0.21,1.56-0.08c1.06,0.31,2.11,0.65,3.16,0.99c2.06,0.67,4.19,1.37,6.33,1.78c1.88,0.36,3.88,0.38,5.81,0.41
	c0.82,0.01,1.64,0.02,2.45,0.05c0.61,0.03,1.21,0.02,1.82,0.01l1.17-0.01l0.12,0.97l-1.48,0.31c-0.97,0.2-1.93,0.41-2.9,0.61
	c-0.52,0.11-1.04,0.21-1.55,0.31c-0.64,0.13-1.28,0.25-1.92,0.39c-0.87,0.18-1.27,0.68-1.27,1.57c0,0.45,0,0.89,0,1.34
	c0,0.7-0.01,1.4,0.01,2.09c0.02,1.09,0.52,1.58,1.63,1.58c1.47,0.01,2.94,0.01,4.41,0.01c0.98,0,1.95,0,2.92,0
	c1.44,0,2.02,0.58,2.03,1.99c0,1.06,0,2.12,0,3.18c0,1.88,0,3.76,0.01,5.64C136.62,90.89,136.5,91.57,135.51,91.69z M134.69,74.35
	v2.19h-5.95l-0.21-0.91L134.69,74.35z"/>
<path d="M90.05,87.26c0.01-0.44-0.1-0.79-0.34-1.03c-0.3-0.3-0.81-0.47-1.47-0.47c-5.26,0-10.53,0-15.79,0
	c-1.18,0-1.79,0.47-1.81,1.41c-0.01,0.44,0.1,0.79,0.34,1.03c0.3,0.31,0.81,0.47,1.47,0.47c1.83,0,3.67,0,5.5,0l2.39,0l2.39,0
	c1.83,0,3.67,0,5.5,0C89.42,88.66,90.03,88.19,90.05,87.26z"/>
<path d="M90.05,81.88c0.01-0.44-0.1-0.79-0.34-1.04c-0.3-0.3-0.81-0.46-1.47-0.47c-5.27,0-10.53,0-15.79,0
	c-1.18,0-1.79,0.47-1.81,1.41c-0.01,0.44,0.1,0.79,0.34,1.03c0.3,0.31,0.81,0.47,1.47,0.47c1.86,0,3.72,0,5.57,0l2.32,0l2.32,0
	c1.86,0,3.71,0,5.57,0C89.42,83.29,90.03,82.82,90.05,81.88z"/>
<path d="M90.05,76.69c0.01-0.44-0.1-0.79-0.34-1.03c-0.3-0.3-0.81-0.47-1.47-0.47c-5.26,0-10.53,0-15.79,0
	c-1.18,0-1.79,0.47-1.81,1.41c-0.01,0.44,0.1,0.79,0.34,1.03c0.3,0.31,0.81,0.47,1.47,0.47c1.86,0,3.72,0,5.57,0l2.32,0l2.39,0
	c1.83,0,3.67,0,5.5,0C89.42,78.1,90.03,77.63,90.05,76.69z"/>
<path d="M46.4,85.75c0,0-0.01,0-0.02,0c-2.88,0-5.14,2.23-5.15,5.09C41.23,93.73,43.46,96,46.32,96c0.01,0,0.01,0,0.02,0
	c1.39,0,2.68-0.52,3.64-1.47c0.96-0.95,1.5-2.24,1.5-3.62C51.49,88.03,49.26,85.76,46.4,85.75z M47.84,92.44
	c-0.42,0.4-0.96,0.63-1.49,0.63c-0.02,0-0.04,0-0.06,0c-0.56-0.02-1.12-0.29-1.54-0.74c-0.41-0.44-0.63-1.01-0.6-1.55
	c0.06-1.11,1.07-2.09,2.18-2.1c0.57,0,1.11,0.24,1.54,0.67c0.43,0.43,0.67,0.99,0.67,1.54C48.54,91.45,48.29,92.01,47.84,92.44z"/>
<path d="M114.21,85.75C114.21,85.75,114.21,85.75,114.21,85.75c-1.39,0-2.68,0.53-3.64,1.49c-0.96,0.96-1.48,2.25-1.48,3.64
	c0,1.39,0.53,2.68,1.49,3.64c0.96,0.96,2.25,1.48,3.64,1.48c0,0,0,0,0,0c2.87,0,5.12-2.25,5.12-5.13
	C119.34,88,117.09,85.75,114.21,85.75z M115.8,92.34c-0.42,0.45-0.98,0.72-1.54,0.73c-0.02,0-0.03,0-0.04,0
	c-0.53,0-1.07-0.23-1.5-0.64c-0.44-0.43-0.69-0.99-0.7-1.54c0-0.55,0.24-1.11,0.68-1.54c0.43-0.43,1.01-0.68,1.54-0.66
	c1.1,0.02,2.12,1,2.17,2.11C116.43,91.34,116.21,91.9,115.8,92.34z"/>
</svg>
