<?xml version="1.0" encoding="utf-8"?>
<!-- Generator: Adobe Illustrator 27.4.0, SVG Export Plug-In . SVG Version: 6.00 Build 0)  -->
<svg version="1.1" id="Capa_1" xmlns="http://www.w3.org/2000/svg" xmlns:xlink="http://www.w3.org/1999/xlink" x="0px" y="0px"
	 viewBox="0 0 157 157" style="enable-background:new 0 0 157 157;" xml:space="preserve">
<g>
	<path d="M148.44,114.33c-1.26,3.41-3.76,4.67-7.32,4.62c-7.6-0.11-15.2-0.03-22.8-0.03c-0.54,0-1.08,0-1.82,0
		c0,0.58,0.01,1.06,0,1.54c-0.08,4.38-3.22,7.48-7.67,7.49c-8.88,0.02-17.75,0.01-26.63,0.01c-11.2,0-22.39,0-33.59,0
		c-4.69,0-7.57-2.55-8.18-7.36c-0.47,0-0.95,0-1.44,0c-7.97,0-15.93-0.09-23.89,0.04c-3.65,0.06-6.8-2.69-6.53-6.55
		c0.28-4.12-0.04-8.32,0.66-12.36c1.92-11.11,12.06-20.25,23.2-21.57c6.36-0.75,12.31,0.3,17.83,3.54c0.84,0.5,1.2,0.09,1.71-0.39
		c5.77-5.55,12.59-9.03,20.51-10.23c11.96-1.81,22.48,1.37,31.6,9.29c0.24,0.21,0.47,0.42,0.78,0.7c0.34-0.19,0.69-0.36,1.03-0.57
		c16.83-10.44,38.43-1.03,42.2,18.39c0.11,0.57,0.24,1.14,0.36,1.7C148.44,106.5,148.44,110.42,148.44,114.33z M78.51,123.35
		c10.06,0,20.12,0,30.18,0c2.16,0,3.2-1,3.24-3.13c0.03-1.46,0-2.91,0-4.37c-0.01-4.68,0.23-9.36-1.02-13.96
		c-5.38-19.69-26.84-30.24-45.53-22.01c-12.73,5.61-19.59,15.63-20.21,29.67c-0.15,3.45-0.04,6.92-0.04,10.37
		c0,2.49,0.96,3.43,3.49,3.43C58.57,123.35,68.54,123.35,78.51,123.35z M116.48,114.14c0.26,0.11,0.35,0.17,0.43,0.17
		c8.47,0.01,16.93,0.02,25.4,0.02c1.05,0,1.58-0.54,1.56-1.62c-0.02-1.73-0.03-3.46,0-5.19c0.05-2.97-0.11-5.89-1.03-8.75
		c-3.42-10.59-14.04-17.32-25.09-15.81c-3.45,0.47-6.69,1.58-9.65,3.61c3.15,3.94,5.43,8.24,6.89,12.98
		C116.46,104.3,116.64,109.19,116.48,114.14z M48.08,87.71c-4.05-2.34-8.21-3.29-12.68-3.19c-10.15,0.21-19.57,7.64-21.54,17.6
		c-0.77,3.87-0.51,7.95-0.67,11.93c-0.06,1.7,0.25,1.94,2,1.94c8,0,16.01,0,24.01,0c0.4,0,0.79-0.04,1.44-0.08
		C39.82,105.67,41.65,96.14,48.08,87.71z"/>
	<path d="M56.89,49.26c0.03-11.45,9.42-20.72,20.95-20.67c11.41,0.05,20.84,9.44,20.8,20.74C98.61,60.66,89.18,70,77.76,70.02
		C66.25,70.05,56.86,60.7,56.89,49.26z M61.45,49.12c-0.17,8.75,7.09,16.15,16,16.32c8.9,0.17,16.41-7.02,16.61-15.89
		c0.19-8.58-7.13-16.2-15.7-16.35C69.02,33.04,61.63,40,61.45,49.12z"/>
	<path d="M20.04,59.93c0.02-8.92,7.3-16.08,16.33-16.06c8.85,0.02,16.18,7.35,16.16,16.15c-0.02,8.84-7.41,16.08-16.4,16.05
		C27.24,76.05,20.02,68.81,20.04,59.93z M36.24,71.48c6.48,0,11.69-5.13,11.69-11.51c0-6.31-5.2-11.46-11.59-11.48
		c-6.53-0.02-11.69,5.03-11.72,11.45C24.59,66.34,29.76,71.47,36.24,71.48z"/>
	<path d="M137,58.89c-0.01,8.86-7.27,16.08-16.17,16.09c-8.94,0.01-16.33-7.3-16.32-16.14c0.01-8.85,7.38-16.08,16.37-16.07
		C129.79,42.79,137,50.01,137,58.89z M132.41,58.87c0-6.43-5.15-11.5-11.67-11.49c-6.47,0.01-11.66,5.16-11.64,11.56
		c0.02,6.28,5.25,11.43,11.64,11.44C127.24,70.38,132.42,65.28,132.41,58.87z"/>
</g>
</svg>
