<?xml version="1.0" encoding="utf-8"?>
<!-- Generator: Adobe Illustrator 27.4.0, SVG Export Plug-In . SVG Version: 6.00 Build 0)  -->
<svg version="1.1" id="Capa_1" xmlns="http://www.w3.org/2000/svg" xmlns:xlink="http://www.w3.org/1999/xlink" x="0px" y="0px"
	 viewBox="0 0 157 157" style="enable-background:new 0 0 157 157;" xml:space="preserve">
<style type="text/css">
	.st0{fill:none;}
</style>
<g>
	<rect x="156.62" y="112.13" class="st0" width="14.25" height="14.31"/>
	<rect x="156.61" y="34.01" class="st0" width="14.27" height="14.26"/>
	<rect x="156.61" y="73.1" class="st0" width="14.25" height="14.27"/>
</g>
<g>
	<path d="M50.65,23.1c-4.06-0.01-8.12-0.01-12.18-0.01s-8.12,0-12.18,0.01c-1.8,0-2.6,0.81-2.61,2.61c-0.01,2.84-0.01,5.69,0,8.53
		l0,3.59l0,3.63c0,2.87,0,5.74,0,8.61c0.01,1.7,0.89,2.59,2.55,2.6c8.12,0.01,16.24,0.01,24.36,0c1.71,0,2.65-0.94,2.65-2.65
		c0.01-8.12,0.01-16.24,0-24.36C53.23,23.99,52.34,23.1,50.65,23.1z M48.57,47.99H28.31V27.74h20.26V47.99z"/>
	<path d="M53.23,132.29c0.01-8.16,0.01-16.32,0-24.48c0-1.64-0.95-2.58-2.6-2.58c-8.12-0.01-16.24-0.01-24.36,0
		c-1.7,0-2.6,0.88-2.6,2.54c-0.01,8.16-0.01,16.32,0,24.48c0,1.71,0.84,2.54,2.56,2.54c2.83,0.01,5.65,0.01,8.48,0.01l3.64,0l3.67,0
		c2.89,0,5.78,0,8.67-0.01C52.31,134.79,53.23,133.88,53.23,132.29z M48.56,130.16H28.32v-20.29h20.24V130.16z"/>
	<path d="M50.59,64.17c-3.94,0-7.88,0-11.82,0c-4.18,0-8.36,0-12.54,0c-1.69,0-2.55,0.86-2.56,2.56c-0.01,2.83-0.01,5.66-0.01,8.48
		l0,3.64l0,3.83c0,2.76,0,5.53,0,8.29c0,1.93,0.82,2.75,2.71,2.75c8.05,0,16.09,0,24.13,0c1.82,0,2.71-0.88,2.71-2.68
		c0.01-8.08,0.01-16.17,0-24.25C53.23,65.08,52.32,64.17,50.59,64.17z M48.56,89.09H28.32V68.83h20.24V89.09z"/>
	<path d="M65.59,32.28C65.59,32.28,65.59,32.28,65.59,32.28c8.49-0.01,16.98-0.01,25.47-0.01l16.6,0c8.41,0,16.83,0,25.24,0
		c1.38,0,2.41-0.9,2.44-2.14c0.04-1.42-0.9-2.38-2.39-2.45c-0.19-0.01-0.38-0.01-0.57-0.01l-0.27,0l-65.72,0l-0.29,0
		c-0.09,0-0.18,0-0.27,0c-0.12,0-0.24,0-0.36,0.01c-0.94,0.07-1.57,0.43-1.99,1.12c-0.47,0.77-0.49,1.47-0.07,2.22
		C63.88,31.89,64.56,32.28,65.59,32.28z"/>
	<path d="M128.99,73.34c1.44,0.01,2.88,0.01,4.31-0.02c1.07-0.03,2-0.98,2.04-2.09c0.02-0.72-0.16-1.28-0.54-1.68
		c-0.49-0.51-1.34-0.78-2.44-0.78c-22.06,0-44.11,0-66.17,0.01c-0.58,0-1.03,0.04-1.4,0.12c-0.89,0.2-1.61,1.09-1.64,2.03
		c-0.02,0.68,0.18,1.27,0.6,1.7c0.43,0.45,1.09,0.7,1.84,0.7c8.3,0.01,16.61,0.01,24.91,0l8.62,0L128.99,73.34z"/>
	<path d="M135.34,112.48c0.09-1.18-0.55-2.21-1.53-2.46c-0.46-0.12-1.02-0.12-1.61-0.12c-8.99-0.01-17.88-0.01-26.77-0.01H92.09
		l-25.47,0c-0.52,0-1,0-1.46,0.04c-0.97,0.09-1.82,0.83-2,1.76c-0.19,0.96,0.23,1.95,0.98,2.3c0.57,0.27,1.35,0.42,2.15,0.43
		c19.96,0.03,39.91,0.02,59.87,0.02l6.07,0c0.39,0,0.81,0,1.2-0.05C134.43,114.28,135.27,113.44,135.34,112.48z"/>
	<path d="M109.83,125.63c-5.4-0.01-10.8-0.01-16.2-0.01l-6.02,0l-2.61,0c-2.23,0-4.46,0-6.69,0c-4.15,0-8.31,0-12.46,0.01
		c-0.39,0-0.79,0.01-1.08,0.09c-1.13,0.34-1.8,1.4-1.62,2.58c0.17,1.14,1.23,1.91,2.64,1.91c14.54,0.01,29.09,0.01,43.64-0.01
		c0.47,0,0.97-0.1,1.37-0.26c0.92-0.37,1.53-1.46,1.34-2.37C111.9,126.38,111.01,125.63,109.83,125.63z"/>
	<path d="M63.15,87.22c0.17,1.13,1.2,1.88,2.55,1.89c14.62,0.01,29.24,0.01,43.86-0.01c0.45,0,0.93-0.1,1.33-0.28
		c0.87-0.39,1.44-1.46,1.26-2.35c-0.25-1.17-1.1-1.91-2.23-1.91c-5.44-0.01-10.88-0.01-16.31-0.01l-5.9,0l-2.88,0
		c-2.26,0-4.52,0-6.78,0c-4.07,0-8.14,0-12.21,0.01c-0.42,0-0.89,0.02-1.22,0.14C63.58,85.07,62.98,86.11,63.15,87.22z"/>
	<path d="M111.77,46.96c0.36-0.55,0.47-1.19,0.31-1.77c-0.29-1.05-0.9-1.75-2.89-1.75c-6.07,0-12.14,0-18.21,0
		c-8.28,0-16.56,0-24.85,0c-0.3,0-0.6,0-0.9,0.03c-1,0.09-1.85,0.81-2.06,1.74c-0.23,1,0.23,2.01,1.09,2.42
		c0.48,0.22,1.18,0.35,1.96,0.35c5.49,0.03,10.98,0.03,16.47,0.02l9.18,0c5.65,0,11.3,0,16.95,0c0.51,0,1.04,0,1.51-0.07
		C110.9,47.85,111.42,47.5,111.77,46.96z"/>
</g>
</svg>
