<?xml version="1.0" encoding="utf-8"?>
<!-- Generator: Adobe Illustrator 27.4.0, SVG Export Plug-In . SVG Version: 6.00 Build 0)  -->
<svg version="1.1" id="Capa_1" xmlns="http://www.w3.org/2000/svg" xmlns:xlink="http://www.w3.org/1999/xlink" x="0px" y="0px"
	 viewBox="0 0 157 157" style="enable-background:new 0 0 157 157;" xml:space="preserve">
<g>
	<path d="M141.39,92.87l0.27-0.32c1.35-1.6,1.28-3.5,1.07-5.47c-0.37-3.54-2.84-5.79-6.44-5.87c-1.81-0.04-3.43-0.04-4.94,0.01
		c-1.03,0.02-1.55-0.37-1.83-1.34c-0.37-1.29-0.78-2.58-1.18-3.86c-0.5-1.59-1.02-3.23-1.46-4.87c-1.27-4.66-3.97-7.51-8.26-8.71
		l-0.34-0.1v-0.35c0-0.84,0-1.67-0.01-2.51c-0.01-1.87-0.02-3.74,0.02-5.61c0.07-3.91-1.02-7.11-3.31-9.76l-0.24-0.28l0.21-0.3
		c1.57-2.24,1.25-4.79,0.73-7c-0.59-2.47-2.9-4.25-5.62-4.33c-1.96-0.06-3.74-0.06-5.46-0.01c-1.03,0.03-1.53-0.36-1.82-1.35
		c-0.83-2.83-1.72-5.7-2.59-8.47L99.75,21c-1.46-4.68-4.88-7.42-9.89-7.91c-14.68-1.45-29.44-1.13-40.66-0.69
		c-4.26,0.17-7.48,0.47-10.46,0.97c-3.94,0.67-6.75,3.2-8.11,7.31c-1.01,3.04-2.02,6.33-3.1,10.06c-0.31,1.07-0.85,1.5-2,1.45
		c-1.56-0.06-3.25-0.06-5.32,0.01c-2.96,0.09-5.41,2.27-5.81,5.19c-0.32,2.35-0.46,4.28,0.98,6.07l0.25,0.31l-0.27,0.3
		c-3,3.28-3.37,7.32-3.34,10.84c0.07,8.04,0.06,16.22,0.05,24.12c-0.01,3.42-0.01,6.84-0.01,10.26c0,4.07,2.54,6.62,6.62,6.65
		c3.4,0.03,6.79,0.02,10.19,0c4.32-0.02,6.81-2.52,6.82-6.87V87.1h5.01l1.1,5.77l-0.06,0.13c-0.24,0.54-0.49,1.09-0.75,1.65
		c-0.64,1.37-1.29,2.8-1.8,4.27c-0.38,1.1-0.41,2.39-0.41,3.72c-0.01,4.04,0,8.08,0,12.13c0.01,7.21,0.02,14.66-0.07,22
		c-0.05,4.46,1.4,6.93,4.85,8.24h13.94c1.56-0.61,3.16-1.25,3.86-2.79c0.43-0.95,0.65-2.05,0.87-3.11c0.07-0.34,0.14-0.67,0.21-1
		c0.05-0.24,0.04-0.52,0.02-0.85c-0.01-0.18-0.02-0.37-0.02-0.57v-0.47h58.88l0,2.17c0.01,3.22,1.48,5.31,4.49,6.39
		c0.16,0.06,0.29,0.15,0.4,0.22l0.01,0h13.9c2.41-0.82,3.99-2.41,4.84-4.84V99.78c-0.7-2.41-1.49-4.73-3.29-6.61L141.39,92.87z
		 M131.88,84.85c0.49,0,0.98-0.01,1.47-0.01c1.14-0.01,2.32-0.03,3.49,0.04c1.27,0.07,2.14,0.95,2.27,2.29
		c0.05,0.55,0.04,1.1,0.03,1.68c-0.01,0.27-0.01,0.55-0.01,0.85v0.59l-1.11-0.25c-0.35-0.08-0.66-0.14-0.96-0.23
		c-0.34-0.1-0.68-0.22-1.02-0.33c-0.53-0.18-1.04-0.35-1.56-0.47c-2.55-0.61-2.77-0.88-3.06-3.63l-0.05-0.51H131.88z M134.73,92.82
		c3.95,1.01,6.41,4.04,6.58,8.11c0.17,4.09,0.13,8.27,0.1,12.31c-0.02,1.77-0.03,3.54-0.03,5.33v0.44l-0.91,0.05
		c-0.33,0.02-0.66,0.04-0.98,0.04l-6.11,0c-5.24,0-10.65-0.01-15.97,0.03c-0.01,0-0.03,0-0.04,0c-1.29,0-1.89-0.49-2.12-1.75
		c-0.2-1.09-0.45-2.2-0.7-3.27c-0.31-1.35-0.63-2.74-0.85-4.14c-0.66-4.07-2.31-6.53-5.34-7.96l-0.43-0.2l1.33-2.66
		c1.4-2.81,2.78-5.57,4.19-8.32c0.24-0.47,0.95-0.78,1.46-0.77C122.19,90.38,128.68,91.28,134.73,92.82z M44.6,88.91
		c-0.01-0.58-0.02-1.08,0.03-1.59c0.16-1.51,1.17-2.43,2.7-2.47c1.05-0.02,2.1-0.02,3.19-0.01l1.97,0.01l-0.04,0.5
		c-0.13,1.66-0.63,3.6-3.38,3.8c-0.81,0.06-1.65,0.35-2.53,0.65c-0.43,0.15-0.87,0.3-1.33,0.43l-0.6,0.17v-0.62
		C44.61,89.46,44.61,89.18,44.6,88.91z M50.97,92.43c3.92-0.68,7.94-1.17,11.83-1.64c1.91-0.23,3.83-0.47,5.73-0.72
		c0.99-0.13,1.62,0.22,2.08,1.17c1.18,2.45,2.4,4.88,3.64,7.35l1.61,3.23l-0.46,0.19c-4.43,1.86-5.14,5.88-5.82,9.78
		c-0.27,1.55-0.58,3.07-0.92,4.67c-0.15,0.73-0.3,1.47-0.45,2.23l-0.07,0.38H42.43v-16.23C42.43,96.65,45.07,93.45,50.97,92.43z
		 M73.92,89.54h36.12l-0.34,0.68c-0.41,0.81-0.82,1.58-1.23,2.33c-0.85,1.59-1.66,3.08-2.2,4.65c-1.01,2.96-2.7,4.17-5.9,4.17
		c-0.24,0-0.48-0.01-0.73-0.02c-4.64-0.24-9.39-0.18-13.97-0.12c-1.56,0.02-3.12,0.04-4.67,0.05c-1.03-0.03-1.6-0.35-2.02-1.22
		c-0.95-1.98-1.94-3.95-2.93-5.91c-0.45-0.91-0.91-1.81-1.36-2.72c-0.1-0.21-0.19-0.42-0.3-0.71L73.92,89.54z M73.52,110.53
		c0.03-0.15,0.06-0.29,0.09-0.44c0.71-3.88,2.27-5.18,6.19-5.18c8.05,0,16.11,0,24.16,0c3.71,0,5.16,1.16,5.98,4.78
		c0.45,2,0.87,4,1.31,6.03l0.7,3.29H71.84L73.52,110.53z M114.87,65.64l2.04,0.16c2.73,0.22,4.84,1.74,5.65,4.08
		c1.38,3.99,2.6,7.95,3.9,12.15c0.52,1.67,1.04,3.36,1.57,5.06l0.22,0.69l-0.72-0.08c-24.07-2.81-47.36-2.81-71.21,0l-0.71,0.08
		l1.07-3.51c0.55-1.81,1.09-3.58,1.63-5.34l0.55-1.79c0.63-2.06,1.26-4.12,1.93-6.17c1-3.1,3.23-4.86,6.61-5.22
		c11.3-1.21,22.53-1.14,33.06-0.96C105.28,64.86,110.15,65.26,114.87,65.64z M77.72,55.83c3.12,0,4.84,1.52,5.39,4.78l0.09,0.52
		l-0.52,0.03c-1.14,0.06-2.28,0.12-3.41,0.17c-2.62,0.13-5.34,0.27-7.99,0.45c-2.22,0.15-4.21,0.32-6.14,0.73
		c-3.45,0.74-5.93,2.86-7.39,6.3c-0.33,0.79-0.78,1.32-1.88,1.32c-0.02,0-0.04,0-0.06,0c-2.46-0.04-4.88-0.03-7.43-0.03l-3.39,0
		l0.12-0.56c0.21-1.01,0.41-2.01,0.61-3.01c0.47-2.35,0.92-4.56,1.43-6.81c0.57-2.5,2.33-3.88,4.97-3.89
		C60.66,55.82,69.19,55.82,77.72,55.83z M48.8,44.06l-1.61-3.22l0.62-0.1c4.61-0.78,31.17-0.74,34.66,0.05l0.58,0.13l-0.27,0.53
		c-0.39,0.78-0.79,1.55-1.2,2.31c-0.9,1.7-1.82,3.45-2.51,5.24c-0.9,2.34-2.27,3.28-4.83,3.28c-0.12,0-0.23,0-0.36-0.01
		c-5.19-0.16-10.48-0.12-15.59-0.08c-1.33,0.01-2.65,0.02-3.98,0.03c-0.01,0-0.02,0-0.03,0c-1.05,0-1.66-0.38-2.1-1.29
		C51.09,48.64,49.95,46.37,48.8,44.06z M96,55.91h9.59v5.13h-0.47c-0.54,0-1.07,0.01-1.59,0.03c-0.53,0.01-1.04,0.03-1.55,0.03
		c-0.65,0-1.28-0.02-1.93-0.09c-2.38-0.26-3.89-1.98-4.03-4.6L96,55.91z M106.41,35.71c1.03,0,2.06-0.01,3.08,0.01
		c1.78,0.03,2.85,1.07,2.95,2.85c0.02,0.44,0.02,0.88,0.01,1.38l-0.01,1.37l-1.15-0.3c-0.37-0.1-0.7-0.18-1.02-0.28
		c-0.31-0.09-0.62-0.19-0.93-0.3c-0.5-0.17-1.01-0.33-1.52-0.46c-2.64-0.65-2.79-0.83-3.23-3.74l-0.08-0.54L106.41,35.71z
		 M106.9,43.46l0.42,0.09c4.18,0.9,7.16,4.48,7.25,8.7c0.05,2.06,0.03,4.09,0.02,6.24c0,0.95-0.01,1.91-0.01,2.89v0.49l-5.24-0.31
		l0-1.8c0-0.94,0-1.84,0-2.75c-0.02-3.27-1.56-4.8-4.85-4.81c-2.43-0.01-4.87-0.01-7.31,0c-1.84,0.01-3.23,0.54-4.03,1.55
		c-0.8,1.01-1,2.48-0.58,4.26c0.12,0.5,0.29,1,0.49,1.58c0.1,0.3,0.21,0.62,0.32,0.96l0.2,0.61l-1.88,0
		c-1.37,0.01-2.66,0.01-3.98-0.04c-0.58-0.02-0.95-0.9-1.01-1.26c-0.54-3.2-2.22-5.47-5.12-6.94l-0.42-0.21l1.38-2.76
		c1.42-2.84,2.75-5.51,4.17-8.22c0.29-0.55,1.2-0.82,1.73-0.77c3.83,0.39,8.29,0.85,12.7,1.42
		C103.09,42.64,105.03,43.06,106.9,43.46z M29.22,37.61c0.06-0.25,0.1-0.47,0.17-0.69l1.05-3.44c1.15-3.8,2.31-7.6,3.49-11.39
		c1.04-3.36,3.38-5.16,7.14-5.51c9.5-0.88,19.34-1.19,30.07-0.94c6.17,0.14,12.44,0.58,18.5,1.01l0.16,0.01
		c3.1,0.22,5.31,1.87,6.23,4.66c1.28,3.87,2.45,7.68,3.69,11.71c0.5,1.64,1.01,3.3,1.53,4.96l0.21,0.68l-0.71-0.08
		c-23.89-2.77-47.15-2.78-71.1-0.02l-0.66,0.08L29.22,37.61z M17.9,38.31c0.07-1.47,1.06-2.51,2.46-2.58
		c1.12-0.06,2.26-0.04,3.37-0.03c0.48,0.01,0.96,0.01,1.43,0.01h0.51l-0.05,0.51c-0.25,2.72-0.58,3.14-2.99,3.73
		c-0.91,0.23-1.82,0.5-2.78,0.79c-0.44,0.13-0.9,0.27-1.37,0.41l-0.6,0.17l-0.01-1.46C17.89,39.31,17.88,38.81,17.9,38.31z
		 M15.6,53.29c0.01-5.36,2.89-8.93,7.88-9.81c4.03-0.71,8.15-1.25,12.14-1.76c1.93-0.25,3.86-0.5,5.78-0.77
		c1.22-0.17,2,0.27,2.56,1.47c1.12,2.37,2.28,4.67,3.51,7.11c0.46,0.92,0.93,1.84,1.4,2.77l0.22,0.45l-0.46,0.19
		c-4.11,1.71-5.02,5.21-5.72,9.27c-0.35,2-0.77,4.12-1.35,6.66c-0.11,0.47-0.71,1.2-1.29,1.2c-5.73,0.03-11.46,0.04-17.27,0.04
		c-1.15,0-2.3,0-3.46,0l-3.96,0l0-6.45C15.59,60.2,15.59,56.75,15.6,53.29z M32.03,90.13c-0.2,1.37-1.15,2.19-2.52,2.2
		c-1.99,0.02-3.91,0.03-5.78,0.03c-1.85,0-3.66-0.01-5.45-0.03c-1.58-0.02-2.61-1.11-2.67-2.85c-0.03-0.89-0.02-1.79-0.02-2.76
		c0-0.46,0.01-0.93,0.01-1.43v-0.92l0.74,0.54C19.49,87.2,22.9,87.1,26.51,87c1.68-0.05,3.42-0.1,5.14,0.12l0.41,0.05v0.41
		c0,0.26,0.01,0.52,0.02,0.78C32.09,88.94,32.11,89.54,32.03,90.13z M41.52,83.44c-3.96,0.02-7.57,0.03-11.03,0.03
		c-2.64,0-5.2-0.01-7.78-0.02c-3.81-0.03-6.78-2.91-7.09-6.85c-0.04-0.54-0.03-1.08-0.02-1.64c0-0.26,0.01-0.53,0.01-0.8v-0.47
		h40.56l-0.66,2.14c-0.46,1.51-0.89,2.94-1.39,4.37c-0.18,0.52-0.93,0.94-1.45,0.96c-1.19,0.05-2.4,0.04-3.56,0.04
		c-0.47,0-0.94-0.01-1.42,0c-1.81,0-3.32,0.54-4.62,1.65C42.66,83.2,42.05,83.43,41.52,83.44z M58.86,138.63
		c-0.05,1.72-1.08,2.8-2.69,2.82c-1.86,0.03-3.73,0.04-5.57,0.04c-1.86,0-3.71-0.01-5.53-0.04c-1.58-0.03-2.58-1.07-2.63-2.73
		c-0.02-0.92-0.02-1.85-0.01-2.87l0.01-2.39l0.74,0.53c3.2,2.31,6.6,2.22,10.21,2.12c1.66-0.04,3.38-0.09,5.07,0.12l0.41,0.05l0,1
		C58.87,137.73,58.88,138.18,58.86,138.63z M110.55,132.54c-19.54-0.01-39.74-0.02-59.61,0.06c-0.02,0-0.03,0-0.05,0
		c-2.85,0-5.24-0.92-6.72-2.6c-1.45-1.64-2.02-3.98-1.66-6.77l0.05-0.41h98.64l0.07,0.39c0.45,2.65-0.09,5.04-1.52,6.74
		c-1.41,1.67-3.63,2.59-6.26,2.6C125.85,132.54,118.2,132.54,110.55,132.54z M141.4,138.86c-0.1,1.58-1.17,2.58-2.79,2.6
		c-1.81,0.02-3.64,0.03-5.47,0.03c-1.79,0-3.58-0.01-5.36-0.03c-1.72-0.02-2.74-1.02-2.86-2.81c-0.03-0.42-0.02-0.84-0.01-1.3
		c0-0.21,0.01-0.42,0.01-0.65v-0.41l0.41-0.05c1.71-0.22,3.46-0.18,5.14-0.13c3.62,0.09,7.04,0.18,10.23-2.16l0.74-0.55v0.92
		c0,0.53,0.01,1.03,0.01,1.51C141.45,136.89,141.46,137.88,141.4,138.86z"/>
	<path d="M24.98,64.72c1.65,0.04,3.3,0.02,4.55,0c3.89-0.05,7.25-2.73,8.17-6.5c0.46-1.87,0.2-3.5-0.72-4.6
		c-0.87-1.04-2.27-1.55-3.92-1.43c-0.82,0.06-1.65,0.04-2.45,0.03c-0.21,0-0.42-0.01-0.63-0.01v0.01h-1.48c-0.34,0-0.68,0-1.02,0
		c-0.84,0-1.69,0-2.53,0c-0.1,0-0.2,0.02-0.31,0.03l-0.15,0.02c-2.05,0.28-3.47,1.83-3.52,3.87c-0.04,1.36-0.04,2.85,0,4.55
		C21.01,62.98,22.7,64.67,24.98,64.72z M24.62,55.91h9.61v0.47c0,2.34-1.55,4.26-3.7,4.57c-1.23,0.17-2.44,0.2-3.73,0.23
		c-0.56,0.01-1.12,0.03-1.69,0.05l-0.49,0.02V55.91z"/>
	<path d="M131.88,101.26c-0.98-0.02-1.97-0.02-2.95-0.01l-1.34,0.01c-0.48,0-0.97,0-1.45-0.01c-0.42,0-0.85-0.01-1.28-0.01
		c-0.57,0-1.13,0.01-1.69,0.03c-2.33,0.08-4,1.74-4.08,4.02c-0.13,3.87,3.02,7.73,6.74,8.28c1.91,0.28,4.05,0.34,6.53,0.2
		c2.19-0.13,3.69-1.81,3.71-4.2c0.01-1.34,0.01-2.69,0-4.04C136.05,103.01,134.4,101.33,131.88,101.26z M132.43,110.09h-0.47
		c-0.56,0-1.12,0.02-1.68,0.03c-0.55,0.02-1.11,0.03-1.67,0.03c-0.72,0-1.44-0.03-2.16-0.11c-2.04-0.24-3.58-2.17-3.67-4.57
		l-0.02-0.48h9.65V110.09z"/>
	<path d="M60.39,101.26c-0.96-0.02-1.91-0.01-2.86-0.01l-1.31,0l-1.3,0c-0.43,0-0.86,0-1.3,0c-0.52,0-1.05,0-1.57,0.01
		c-2.56,0.04-4.23,1.63-4.34,4.16c-0.06,1.43-0.06,2.86,0,4.26c0.12,2.49,1.74,4.08,4.23,4.15c1.49,0.04,2.93,0.04,4.28,0
		c4.36-0.13,7.75-3.13,8.43-7.45c0.22-1.4-0.09-2.69-0.88-3.63C62.99,101.81,61.79,101.29,60.39,101.26z M59.91,108.53
		c-0.76,0.92-1.84,1.5-2.96,1.58c-0.64,0.05-1.28,0.06-1.93,0.06c-0.51,0-1.02-0.01-1.54-0.02c-0.53-0.01-1.07-0.02-1.62-0.02h-0.47
		v-5.11h9.44l0.05,0.41C61.01,106.5,60.66,107.63,59.91,108.53z"/>
</g>
</svg>
