<?xml version="1.0" encoding="utf-8"?>
<!-- Generator: Adobe Illustrator 27.4.0, SVG Export Plug-In . SVG Version: 6.00 Build 0)  -->
<svg version="1.1" id="Capa_1" xmlns="http://www.w3.org/2000/svg" xmlns:xlink="http://www.w3.org/1999/xlink" x="0px" y="0px"
	 viewBox="0 0 157 157" style="enable-background:new 0 0 157 157;" xml:space="preserve">
<style type="text/css">
	.st0{fill:none;}
</style>
<g>
	<rect x="156.62" y="112.13" class="st0" width="14.25" height="14.31"/>
	<rect x="156.61" y="34.01" class="st0" width="14.27" height="14.26"/>
	<rect x="156.61" y="73.1" class="st0" width="14.25" height="14.27"/>
</g>
<g>
	<path d="M108.89,46.61c4.03,0,7.95,0,11.87,0c1.36,0,2.72-0.05,4.07,0.02c2.13,0.11,3.43,1.78,3.14,3.86
		c-1.73,12.11-3.45,24.22-5.19,36.33c-1.9,13.26-3.83,26.51-5.74,39.77c-0.5,3.45-0.97,6.9-1.48,10.34c-0.27,1.81-1.28,2.7-3.1,2.86
		c-0.48,0.04-0.97,0.03-1.45,0.03c-25.93,0-51.86,0-77.79,0c-0.63,0-1.26-0.01-1.88-0.1c-1.75-0.27-2.91-1.78-2.66-3.54
		c1.2-8.38,2.43-16.75,3.63-25.13c1.21-8.47,2.39-16.95,3.6-25.43c1.21-8.47,2.44-16.94,3.66-25.42c0.5-3.49,0.99-6.99,1.52-10.48
		c0.33-2.17,1.44-3.1,3.64-3.11c4.65-0.02,9.31,0,13.96-0.01c0.43,0,0.86,0,1.5,0c-1.58-9.76,0.58-18.28,8.13-24.91
		c5.5-4.83,12.03-6.74,19.26-5.91C99.91,17.22,112,28.77,108.89,46.61z M71.76,96.26c14.52,0,28.85,0,43.3,0
		c2.06-14.42,4.11-28.8,6.18-43.31c-4.69,0-9.09-0.02-13.49,0.04c-0.35,0.01-0.8,0.55-1.03,0.95c-1.08,1.94-1.97,4-3.15,5.87
		c-5.28,8.4-10.64,16.76-15.98,25.13c-1.83,2.87-4.29,2.86-6.13-0.03c-4.63-7.27-9.31-14.51-13.86-21.82
		c-1.91-3.07-3.55-6.31-5.37-9.44c-0.2-0.35-0.79-0.66-1.21-0.67c-2.66-0.06-5.33-0.03-8-0.03c-2.02,0-4.05,0-6.11,0
		c-1.48,10.35-2.94,20.54-4.42,30.9c0.65,0,1.17,0,1.69,0c8.39,0,16.77-0.01,25.16,0.01c2.67,0,3.98,1.62,3.57,4.22
		C72.5,90.75,72.16,93.44,71.76,96.26z M114.15,102.7c-14.57,0-28.93,0-43.31,0c-1.47,10.31-2.93,20.51-4.4,30.79
		c14.42,0,28.8,0,43.3,0C111.21,123.26,112.67,113.03,114.15,102.7z M60.09,133.51c2.06-14.43,4.11-28.78,6.17-43.24
		c-8.29,0-16.41,0-24.69,0c-2.05,14.39-4.11,28.77-6.17,43.24C43.71,133.51,51.8,133.51,60.09,133.51z M84.62,78.17
		c5.33-8.6,10.77-16.88,15.67-25.48c2.83-4.97,3.62-10.66,2.35-16.34c-2.19-9.81-11.59-15.92-21.48-14.18
		c-8.19,1.44-14.58,8.56-15.1,16.87c-0.39,6.25,1.26,11.97,4.61,17.22c3.74,5.88,7.48,11.77,11.22,17.65
		C82.74,75.25,83.6,76.59,84.62,78.17z"/>
	<path d="M72.1,40.47c0-6.78,5.59-12.44,12.35-12.48c6.83-0.04,12.49,5.61,12.49,12.47c0,6.86-5.65,12.52-12.48,12.48
		C77.71,52.9,72.11,47.25,72.1,40.47z M84.55,46.6c3.48-0.01,6.13-2.67,6.12-6.16c-0.01-3.49-2.66-6.12-6.16-6.12
		c-3.43,0-6.19,2.75-6.18,6.15C78.35,43.89,81.11,46.61,84.55,46.6z"/>
</g>
</svg>
